<?xml version="1.0" standalone="no"?>
<!DOCTYPE svg PUBLIC "-//W3C//DTD SVG 20010904//EN"
 "http://www.w3.org/TR/2001/REC-SVG-20010904/DTD/svg10.dtd">
<svg version="1.0" xmlns="http://www.w3.org/2000/svg"
 width="335.000000pt" height="173.000000pt" viewBox="0 0 335.000000 173.000000"
 preserveAspectRatio="xMidYMid meet">

<g transform="translate(0.000000,173.000000) scale(0.100000,-0.100000)"
fill="#000000" stroke="none">
<path d="M674 1711 c-46 -28 -147 -158 -296 -379 -149 -222 -204 -285 -246
-280 -35 4 -27 20 16 35 45 15 52 23 59 66 10 66 -60 108 -127 74 -65 -33 -93
-145 -49 -201 84 -107 207 -59 328 128 24 36 45 66 47 66 2 0 -3 -19 -11 -41
-21 -59 -19 -127 5 -166 38 -63 97 -51 143 29 80 141 98 171 91 153 -4 -11 -9
-47 -11 -80 -4 -51 -1 -65 19 -95 43 -63 94 -65 171 -6 l45 34 6 -29 c8 -41
44 -56 97 -40 29 9 44 9 54 1 8 -7 36 -8 78 -4 73 7 69 3 117 134 24 66 81
160 87 143 2 -6 -12 -46 -31 -89 -45 -95 -47 -144 -10 -173 34 -26 88 -27 138
-2 37 19 38 19 57 0 37 -37 103 -16 174 56 52 51 77 101 68 134 -5 18 -11 22
-34 19 l-27 -4 29 59 c17 32 28 65 25 73 -4 10 -24 14 -71 14 l-65 0 -42 -87
c-38 -83 -108 -169 -116 -145 -2 6 8 32 22 59 47 94 43 167 -10 192 -34 15
-52 14 -101 -9 -42 -18 -42 -18 -48 1 -8 25 -41 42 -70 35 -19 -5 -22 -2 -17
19 13 68 -26 105 -89 86 -43 -13 -59 -35 -59 -80 0 -41 37 -66 87 -58 27 5 33
3 25 -5 -7 -7 -40 -10 -82 -9 l-71 2 -34 -75 c-19 -42 -40 -76 -47 -76 -7 0
-34 -21 -60 -47 -26 -26 -50 -44 -54 -40 -10 10 59 201 146 404 44 101 77 190
74 198 -4 8 -17 18 -30 21 -53 14 -141 -77 -280 -288 -82 -125 -90 -134 -68
-83 9 22 40 96 69 165 65 156 70 174 49 194 -20 21 -32 20 -70 -3z m52 -36
c-3 -13 -46 -120 -95 -237 -92 -223 -137 -345 -129 -353 3 -3 33 43 68 102
131 225 301 461 355 497 22 15 55 22 55 12 0 -2 -36 -89 -81 -192 -117 -272
-178 -464 -147 -464 8 0 46 29 85 65 39 36 76 65 82 65 6 0 27 34 46 75 l34
75 45 0 c25 0 46 -2 46 -4 0 -3 -22 -51 -50 -107 -27 -56 -50 -108 -50 -116 0
-24 18 -14 56 32 20 25 42 45 48 45 16 0 62 97 52 107 -4 4 -12 0 -17 -9 -12
-21 -49 -43 -49 -29 0 5 23 35 51 66 62 67 89 71 103 14 l9 -37 45 29 c75 47
132 33 132 -33 0 -17 -16 -65 -35 -108 -41 -91 -42 -100 -12 -100 57 0 108 56
166 184 l30 66 45 0 c25 0 46 -2 46 -4 0 -3 -22 -51 -50 -107 -27 -56 -50
-108 -50 -116 0 -24 17 -14 58 35 22 26 43 44 47 40 13 -13 -45 -97 -92 -133
-61 -46 -101 -46 -117 2 l-11 32 -29 -30 c-34 -33 -58 -42 -107 -37 -23 2 -38
11 -48 29 -13 23 -11 31 24 109 38 85 57 170 37 170 -40 0 -104 -98 -157 -237
l-27 -73 -54 0 c-58 0 -61 2 -39 40 24 42 17 42 -36 0 -63 -49 -104 -54 -120
-13 -10 26 -8 46 7 90 4 10 -17 -5 -47 -33 -99 -94 -140 -106 -179 -56 -19 23
-21 36 -18 92 7 87 49 176 175 365 125 189 127 193 55 118 -79 -83 -176 -221
-264 -376 -106 -186 -130 -222 -154 -225 -46 -7 -71 72 -47 151 21 72 90 207
189 370 46 76 80 135 74 132 -22 -14 -145 -181 -253 -345 -138 -210 -166 -247
-219 -282 -52 -36 -97 -36 -136 -3 -38 32 -48 72 -29 116 21 49 49 71 88 67
68 -7 66 -77 -3 -100 -57 -19 -70 -43 -39 -69 32 -26 61 -24 108 10 45 33 74
71 203 266 157 237 278 385 314 385 14 0 17 -5 12 -25z m409 -250 l0 -40 -40
0 c-37 0 -40 2 -43 30 -4 35 21 57 58 53 22 -3 25 -8 25 -43z"/>
<path d="M1634 1486 c-34 -15 -44 -32 -44 -77 0 -40 38 -64 88 -56 20 4 43 14
49 24 20 26 16 80 -7 103 -23 23 -43 24 -86 6z m71 -61 l0 -40 -40 0 c-37 0
-40 2 -43 30 -4 35 21 57 58 53 22 -3 25 -8 25 -43z"/>
<path d="M1897 1299 c-77 -79 -98 -105 -93 -121 3 -15 -4 -29 -25 -49 -91 -85
41 -197 169 -144 20 9 46 25 58 36 l22 21 7 -21 c7 -23 53 -51 82 -51 10 1 29
7 42 14 21 12 28 12 48 -1 30 -20 76 -11 122 24 l35 27 -20 -34 c-12 -19 -38
-67 -59 -107 -33 -61 -37 -74 -25 -88 9 -11 22 -14 42 -10 15 3 41 8 58 11 24
4 37 19 75 90 42 76 48 84 70 78 35 -9 92 14 136 53 25 23 39 30 39 21 0 -9 9
-27 20 -41 41 -52 138 -45 206 15 35 31 35 31 23 5 -9 -21 -9 -30 1 -42 17
-21 119 -17 131 5 5 8 26 53 48 100 22 47 52 99 67 115 27 29 27 29 35 7 11
-29 53 -38 83 -19 31 21 59 82 52 113 -9 32 -41 64 -66 64 -12 0 -39 -9 -60
-20 -22 -11 -40 -16 -40 -10 0 17 -39 50 -60 50 -11 0 -34 -13 -52 -29 l-32
-29 -27 29 c-20 21 -36 29 -61 29 -44 0 -131 -43 -163 -82 -14 -16 -25 -24
-25 -18 0 21 -49 60 -76 60 -15 0 -33 8 -40 18 -22 30 -95 23 -141 -14 l-39
-32 4 28 c3 21 -1 30 -15 34 -17 5 -121 -7 -126 -15 -1 -2 -17 -33 -36 -69
-44 -86 -92 -162 -98 -156 -7 6 50 128 77 166 25 35 26 67 3 74 -31 9 -125 -8
-134 -24 -5 -8 -21 -43 -37 -78 l-27 -63 -24 45 c-23 41 -24 47 -11 71 10 19
11 31 4 43 -23 36 -48 22 -147 -79z m123 63 c0 -4 -7 -18 -16 -30 -15 -21 -14
-26 14 -70 43 -68 47 -98 20 -151 -34 -66 -86 -103 -150 -109 -43 -3 -58 0
-80 18 -45 35 -34 100 17 100 46 0 60 -48 23 -74 -22 -16 -22 -16 -2 -16 58 0
109 97 102 194 l-3 45 -57 -50 c-88 -77 -69 -40 30 60 83 85 102 100 102 83z
m231 -31 c-43 -60 -92 -178 -89 -213 2 -20 8 -33 17 -33 18 0 85 99 131 193
37 75 52 86 108 80 l31 -3 -51 -85 c-79 -134 -101 -180 -84 -180 8 0 32 21 55
48 30 35 40 42 41 28 1 -51 -111 -166 -162 -166 -21 0 -32 7 -40 25 l-11 24
-29 -24 c-16 -14 -40 -25 -54 -25 -31 0 -64 33 -64 64 0 30 105 277 122 288 7
4 32 8 56 8 l43 0 -20 -29z m378 6 c8 -20 15 -23 40 -19 44 6 61 -12 61 -66 0
-56 -27 -115 -82 -176 -62 -71 -101 -86 -160 -62 -13 6 -27 -11 -67 -87 -50
-92 -53 -95 -93 -101 -22 -4 -42 -5 -44 -3 -5 4 -2 9 146 275 56 101 99 186
97 189 -6 5 -57 -26 -57 -36 0 -3 -11 -19 -25 -36 l-24 -30 -1 25 c0 17 19 43
64 87 55 54 70 63 101 63 28 0 37 -5 44 -23z m359 11 c17 -17 15 -85 -4 -117
-20 -35 -99 -89 -141 -97 -25 -5 -33 -13 -38 -36 -16 -70 34 -60 122 25 78 74
83 53 8 -30 -60 -66 -105 -93 -157 -93 -95 0 -97 123 -3 250 64 87 174 137
213 98z m167 -29 l10 -36 45 28 c57 36 87 37 102 3 10 -22 9 -32 -7 -62 -21
-39 -61 -55 -71 -28 -8 20 12 53 36 61 26 8 26 25 1 25 -24 0 -107 -70 -140
-118 -13 -19 -39 -69 -57 -111 l-33 -76 -45 -3 c-25 -2 -46 0 -46 4 0 4 28 65
62 136 62 129 69 164 24 115 -14 -15 -28 -27 -31 -27 -15 0 0 24 46 75 61 66
88 70 104 14z m-1236 -141 c-1 -29 -27 -99 -28 -76 -1 10 -10 23 -21 30 -19
12 -19 13 7 40 32 34 43 35 42 6z m956 -68 c-10 -17 -45 -32 -45 -20 0 6 10
15 23 20 29 12 29 12 22 0z"/>
<path d="M2618 1272 c-18 -21 -128 -213 -128 -224 0 -4 7 -8 17 -8 23 0 89 72
118 130 37 72 31 147 -7 102z"/>
<path d="M2914 1303 c-28 -30 -84 -125 -84 -142 0 -28 91 43 116 91 16 32 19
78 4 78 -6 0 -22 -12 -36 -27z"/>
<path d="M946 928 c-111 -21 -229 -95 -292 -183 -49 -70 -60 -117 -39 -173 14
-35 26 -48 59 -63 57 -26 103 -24 167 9 75 38 112 99 117 193 4 65 3 70 -26
98 -16 17 -27 33 -24 36 11 11 100 4 152 -11 l54 -16 -26 -19 c-50 -37 -110
-129 -174 -270 -35 -78 -80 -162 -99 -185 -58 -71 -155 -102 -229 -74 -36 13
-32 27 9 34 64 12 85 81 42 132 -19 22 -32 27 -68 27 -146 0 -177 -188 -42
-254 41 -21 62 -24 148 -23 109 1 181 20 251 68 l38 25 12 -35 c14 -40 12 -37
41 -53 32 -16 69 -14 112 9 40 20 113 96 137 141 9 19 25 29 50 33 20 4 38 5
41 3 2 -3 -37 -81 -87 -173 -98 -179 -103 -201 -44 -197 86 6 90 9 139 98 42
77 48 85 70 79 31 -8 88 12 125 43 17 14 30 20 30 13 0 -6 11 -22 25 -35 27
-28 66 -32 104 -11 21 12 28 12 48 -1 32 -21 82 -10 129 31 l38 33 21 -31 c38
-57 117 -59 196 -6 l43 29 13 -29 c21 -52 85 -50 158 5 l35 27 11 -25 c22 -48
85 -60 148 -27 40 20 113 96 137 141 9 18 25 29 48 33 61 12 82 69 30 82 -20
5 -23 12 -21 46 3 74 -67 108 -151 73 -41 -18 -113 -83 -143 -131 -10 -18 -28
-34 -39 -37 -17 -4 -16 1 11 55 17 33 28 66 25 74 -8 21 -132 19 -144 -2 -8
-14 -10 -12 -16 10 -6 26 -50 56 -83 56 -66 0 -165 -68 -213 -145 -35 -57 -43
-39 -10 25 34 68 38 106 13 114 -10 3 -57 4 -104 3 -91 -4 -129 -18 -178 -71
l-24 -25 -27 29 c-19 20 -38 30 -58 30 -17 0 -32 6 -35 14 -3 8 -21 18 -41 21
-47 9 -93 -15 -156 -81 -28 -30 -53 -54 -55 -54 -2 0 -3 19 -2 41 1 34 -4 46
-26 65 -36 31 -80 31 -139 1 l-45 -23 14 66 c7 36 23 91 35 123 l23 57 41 -6
c74 -11 164 53 164 116 0 37 -28 47 -71 25 -29 -16 -40 -16 -143 -1 -122 18
-157 18 -230 4z m286 -34 c40 -4 80 -2 99 5 18 6 34 9 37 6 9 -9 -29 -56 -61
-75 -44 -27 -71 -25 -184 12 -164 54 -257 41 -363 -50 -95 -80 -131 -191 -75
-228 40 -26 92 -11 142 41 51 54 81 143 53 160 -17 10 -39 -14 -52 -56 -8 -29
-24 -49 -60 -74 l-48 -35 0 38 c0 111 127 214 192 155 26 -23 24 -113 -3 -171
-66 -135 -279 -134 -279 0 0 87 130 214 269 265 69 25 122 26 333 7z m-79
-100 c3 -4 -3 -24 -14 -45 -11 -22 -28 -81 -39 -133 -10 -51 -28 -117 -39
-146 l-20 -53 49 55 c78 87 162 115 196 63 8 -13 13 -32 11 -42 -3 -10 -8 -28
-12 -40 -6 -20 -3 -23 23 -23 24 0 45 15 100 70 61 61 75 70 106 70 29 0 38
-5 45 -23 8 -19 15 -23 43 -19 46 5 61 -15 56 -77 -1 -28 -1 -47 3 -43 63 81
89 109 122 133 42 30 85 37 105 17 8 -8 15 -8 26 1 8 7 31 11 51 9 l36 -3 -34
-65 c-18 -36 -51 -95 -71 -132 -44 -80 -31 -88 31 -21 36 40 43 44 43 26 0
-12 -18 -44 -39 -71 -68 -86 -142 -115 -166 -66 l-11 22 -27 -24 c-56 -48
-122 -16 -115 56 l3 37 -39 -44 c-60 -68 -100 -83 -158 -59 -13 6 -27 -11 -67
-87 -50 -92 -53 -95 -93 -101 -22 -4 -42 -5 -44 -3 -5 4 -2 9 146 275 56 101
99 186 96 189 -8 8 -46 -23 -70 -57 -19 -28 -29 -33 -71 -37 -28 -2 -52 -8
-53 -14 -10 -28 -96 -131 -129 -153 -102 -70 -168 8 -113 134 16 37 16 41 2
20 -59 -84 -118 -128 -213 -160 -80 -27 -212 -25 -272 4 -60 29 -82 92 -55
151 13 28 55 55 85 55 32 0 63 -29 63 -59 0 -33 -13 -46 -57 -55 -17 -4 -37
-14 -44 -23 -11 -13 -9 -19 14 -39 60 -51 185 -37 265 32 29 24 55 61 81 117
22 45 59 125 84 177 33 68 61 111 102 153 55 56 66 63 78 51z m-461 -179 c3
-13 1 -22 -3 -19 -9 5 -13 44 -5 44 2 0 6 -11 8 -25z m98 -10 c-7 -8 -17 -15
-23 -15 -6 0 -2 7 9 15 25 19 30 19 14 0z m1464 -51 c22 -21 20 -56 -5 -88
-17 -21 -59 -37 -59 -22 0 2 -3 11 -6 20 -4 10 5 27 26 46 27 25 29 30 13 30
-40 0 -129 -126 -153 -219 -22 -84 32 -79 121 13 67 70 80 56 18 -19 -78 -95
-172 -133 -221 -88 -61 55 41 270 154 326 42 21 92 21 112 1z m462 -19 c8 -13
13 -33 10 -45 -19 -64 -20 -60 21 -60 36 -1 37 -2 19 -15 -11 -8 -31 -15 -45
-16 -20 0 -35 -14 -67 -62 -49 -75 -113 -127 -156 -127 -101 0 -87 142 25 266
76 84 160 110 193 59z m-286 -9 c0 -3 -22 -51 -50 -107 -27 -56 -50 -108 -50
-116 0 -24 17 -14 58 35 22 26 43 44 47 40 13 -13 -45 -97 -92 -133 -61 -47
-103 -46 -117 2 -8 29 -2 47 53 158 l62 125 44 0 c25 0 45 -2 45 -4z m-260
-95 c0 -5 11 -13 24 -18 l25 -8 -40 -43 c-22 -23 -51 -50 -66 -59 -25 -17 -26
-17 -19 7 21 71 76 159 76 121z m94 -6 c-4 -8 -13 -15 -22 -15 -13 0 -12 3 4
15 24 18 25 18 18 0z"/>
<path d="M1211 511 c-28 -28 -26 -47 5 -67 32 -22 46 -9 48 42 1 46 -22 56
-53 25z m29 -33 c0 -16 -3 -19 -11 -11 -6 6 -8 16 -5 22 11 17 16 13 16 -11z"/>
<path d="M1818 483 c-74 -77 -125 -193 -84 -193 21 0 156 198 156 229 0 23
-27 9 -72 -36z"/>
<path d="M1548 482 c-18 -21 -128 -213 -128 -224 0 -4 7 -8 17 -8 23 0 89 72
118 130 37 72 31 147 -7 102z"/>
<path d="M1131 386 c-37 -77 -39 -96 -8 -96 24 0 69 42 100 93 14 21 15 27 4
27 -8 0 -26 9 -40 20 l-26 20 -30 -64z m59 1 c0 -7 -13 -26 -30 -42 l-30 -29
17 42 c15 39 43 58 43 29z"/>
<path d="M2641 511 c-28 -28 -26 -47 5 -67 32 -22 46 -9 48 42 1 46 -22 56
-53 25z m29 -33 c0 -16 -3 -19 -11 -11 -6 6 -8 16 -5 22 11 17 16 13 16 -11z"/>
<path d="M2561 386 c-37 -77 -39 -96 -8 -96 24 0 69 42 100 93 14 21 15 27 4
27 -8 0 -26 9 -40 20 l-26 20 -30 -64z m59 1 c0 -7 -13 -26 -30 -42 l-30 -29
17 42 c15 39 43 58 43 29z"/>
<path d="M2404 696 c-34 -15 -44 -32 -44 -77 0 -40 38 -64 88 -56 20 4 43 14
49 24 20 26 16 80 -7 103 -23 23 -43 24 -86 6z m71 -61 l0 -40 -40 0 c-37 0
-40 2 -43 30 -4 35 21 57 58 53 22 -3 25 -8 25 -43z"/>
</g>
</svg>
