<svg height="465pt" viewBox="-8 0 465 465.676" width="465pt" xmlns="http://www.w3.org/2000/svg"><path d="m312.339844 320.8125c-34.46875-.039062-62.402344-27.96875-62.441406-62.4375v-32.09375c0-3.867188 3.132812-7 7-7 3.867187 0 7 3.132812 7 7v32.09375c0 26.75 21.6875 48.4375 48.441406 48.4375 26.75 0 48.4375-21.6875 48.4375-48.4375v-32.09375c0-3.867188 3.132812-7 7-7 3.867187 0 7 3.132812 7 7v32.09375c-.039063 34.46875-27.972656 62.398438-62.4375 62.4375zm0 0" fill="#1ae5be"/><path d="m228.4375 154.136719c-3.867188 0-7-3.132813-7-7v-74.035157c0-32.640624-26.460938-59.101562-59.097656-59.101562-32.640625 0-59.101563 26.460938-59.101563 59.101562v74.035157c0 3.867187-3.132812 7-7 7-3.867187 0-7-3.132813-7-7v-74.035157c0-40.375 32.726563-73.101562 73.101563-73.101562 40.371094 0 73.097656 32.726562 73.097656 73.101562v74.035157c0 3.867187-3.132812 7-7 7zm0 0" fill="#1ae5be"/><path d="m417.945312 199.429688c0-.039063-.007812-.078126-.015624-.117188-1.769532-11.59375-11.761719-20.136719-23.488282-20.089844h-99.183594l-8.335937-59.785156c0-.039062-.011719-.082031-.015625-.121094-2.011719-13.160156-13.359375-22.867187-26.675781-22.8125h-195.785157c-13.316406-.054687-24.664062 9.652344-26.675781 22.8125-.003906.039063-.011719.082032-.015625.121094l-37.347656 267.949219c-.046875.320312-.070312.644531-.066406.96875.027344 25.945312 21.054687 46.96875 47 47h129.308594c4.675781 17.84375 20.789062 30.296875 39.238281 30.320312h192.898437c22.386719-.023437 40.527344-18.164062 40.554688-40.546875 0-.324218-.023438-.648437-.070313-.96875zm-242.148437 221.925781h-128.457031c-18.039063-.019531-32.726563-14.503907-33-32.539063l37.269531-267.378906c.988281-6.316406 6.441406-10.960938 12.835937-10.933594h195.785157c6.394531-.027344 11.847656 4.617188 12.835937 10.933594l8.054688 57.785156h-50.882813c-11.726562-.050781-21.71875 8.496094-23.488281 20.085938-.003906.039062-.011719.082031-.015625.121094zm232.992187 30.320312h-192.898437c-14.480469-.011719-26.285156-11.613281-26.550781-26.089843l31.242187-224.15625c.75-4.742188 4.847657-8.226563 9.648438-8.207032h164.207031c4.800781-.019531 8.898438 3.464844 9.648438 8.207032l31.253906 224.15625c-.269532 14.476562-12.070313 26.074218-26.550782 26.089843zm0 0" fill="#0635c9"/><g fill="#d4e1f4"><path d="m245.886719 421.675781c-14.480469-.015625-26.28125-11.613281-26.546875-26.089843l28.207031-202.363282h-17.308594c-4.800781-.019531-8.898437 3.464844-9.648437 8.207032l-31.25 224.15625c.265625 14.472656 12.066406 26.074218 26.542968 26.089843h192.898438c14.480469-.011719 26.289062-11.613281 26.558594-26.089843l-.546875-3.910157zm0 0"/><path d="m77.339844 391.355469c-18.039063-.019531-32.726563-14.503907-33-32.539063l34.609375-248.308594h-14.503907c-6.390624-.027343-11.84375 4.617188-12.835937 10.929688l-37.269531 267.378906c.273437 18.035156 14.960937 32.519532 33 32.539063h128.457031l4.179687-30zm0 0"/></g></svg>