<?xml version="1.0" encoding="iso-8859-1"?>
<!-- Generator: Adobe Illustrator 19.0.0, SVG Export Plug-In . SVG Version: 6.00 Build 0)  -->
<svg version="1.1" id="Capa_1" xmlns="http://www.w3.org/2000/svg" xmlns:xlink="http://www.w3.org/1999/xlink" x="0px" y="0px"
	 viewBox="0 0 512.007 512.007" style="enable-background:new 0 0 512.007 512.007;" xml:space="preserve">
<g>
	<rect x="52.392" y="145.979" style="fill:#4398D1;" width="161.718" height="17.023"/>
	
		<rect x="188.602" y="20.86" transform="matrix(-0.7926 0.6097 -0.6097 -0.7926 408.6244 42.3303)" style="fill:#4398D1;" width="17.023" height="139.593"/>
	
		<rect x="263.397" y="86.455" transform="matrix(-0.8321 0.5547 -0.5547 -0.8321 647.6866 -6.1605)" style="fill:#4398D1;" width="122.758" height="17.024"/>
	
		<rect x="367.169" y="102.521" transform="matrix(-0.33 0.944 -0.944 -0.33 681.5605 -98.3441)" style="fill:#4398D1;" width="17.023" height="180.362"/>
	
		<rect x="5.481" y="231.089" transform="matrix(-0.7809 0.6246 -0.6246 -0.7809 402.0973 338.1729)" style="fill:#4398D1;" width="272.528" height="17.022"/>
	<circle style="fill:#4398D1;" cx="43.881" cy="154.49" r="34.046"/>
	<circle style="fill:#4398D1;" cx="401.406" cy="43.875" r="34.046"/>
	<circle style="fill:#4398D1;" cx="469.498" cy="222.582" r="34.046"/>
	<circle style="fill:#4398D1;" cx="154.573" cy="43.875" r="34.046"/>
	<circle style="fill:#4398D1;" cx="43.881" cy="324.72" r="34.046"/>
	<circle style="fill:#4398D1;" cx="256.71" cy="154.49" r="59.58"/>
</g>
<path style="fill:#FEC9A3;" d="M409.875,282.197c-14.104,0-25.534,11.431-25.534,25.534c0-14.104-11.431-25.534-25.534-25.534
	s-25.534,11.431-25.534,25.534c0-14.104-11.431-25.534-25.534-25.534s-25.534,11.431-25.534,25.534V171.547
	c0-14.104-11.431-25.534-25.534-25.534c-14.104,0-25.534,11.431-25.534,25.534v178.741c0-28.207-22.862-51.069-51.069-51.069
	v153.207l59.58,59.58h195.764V307.731C435.409,293.628,423.978,282.197,409.875,282.197z"/>
<path style="fill:#F7C097;" d="M409.875,282.197c-0.247,0-0.468,0.068-0.715,0.068c-46.285,119.782-142.278,176.426-197.041,202.216
	l27.526,27.526h195.764V307.731C435.409,293.628,423.978,282.197,409.875,282.197z"/>
<path style="fill:#F5B789;" d="M231.133,418.381c-4.698,0-8.511-3.813-8.511-8.512v-59.58c0-4.698,3.813-8.512,8.511-8.512
	c4.698,0,8.511,3.813,8.511,8.512v59.58C239.645,414.576,235.832,418.381,231.133,418.381z"/>
<path d="M469.455,180.059c-16.095,0.06-30.769,9.201-37.91,23.628L323.909,165.24c0.562-3.541,0.843-7.124,0.851-10.716
	c-0.009-14.563-4.707-28.735-13.414-40.404l60.074-40.055c16.785,16.742,43.962,16.7,60.704-0.085
	c16.742-16.785,16.7-43.962-0.085-60.704s-43.962-16.7-60.704,0.085c-12.188,12.222-15.865,30.556-9.346,46.532L299.421,101.6
	c-24.266-19.73-58.882-20.274-83.753-1.319l-25.986-32.471c13.576-19.627,8.682-46.541-10.946-60.125s-46.541-8.682-60.125,10.946
	s-8.682,46.541,10.946,60.125c14.299,9.899,33.144,10.256,47.809,0.911l26.045,32.548c-7.762,9.746-12.699,21.44-14.248,33.799
	H85.587c-4.698-23.032-27.177-37.885-50.209-33.186s-37.885,27.177-33.186,50.209s27.177,37.885,50.209,33.186
	c16.717-3.413,29.773-16.47,33.186-33.186h103.542c0.945,7.805,3.251,15.38,6.809,22.385L67.789,289.576
	C48.17,276,21.266,280.903,7.69,300.522c-13.576,19.619-8.673,46.524,10.946,60.1s46.524,8.673,60.1-10.946
	c9.899-14.299,10.248-33.144,0.894-47.809l129.034-104.836c4.673-0.502,8.052-4.707,7.55-9.38c-0.153-1.421-0.664-2.783-1.481-3.949
	c-16.112-23.151-10.401-54.976,12.75-71.088s54.976-10.401,71.088,12.75c12.197,17.534,12.197,40.804,0,58.338l13.959,9.729
	c2.545-3.728,4.707-7.711,6.452-11.874l108.147,38.625c-0.051,0.851-0.247,1.592-0.247,2.426c0,23.5,19.057,42.557,42.557,42.557
	c23.5,0,42.557-19.057,42.557-42.557s-19.057-42.557-42.557-42.557L469.455,180.059z M401.363,18.341
	c14.104,0,25.534,11.431,25.534,25.534S415.467,69.41,401.363,69.41c-14.104,0-25.534-11.431-25.534-25.534
	S387.26,18.341,401.363,18.341z M154.53,69.41c-14.104,0-25.534-11.431-25.534-25.534s11.431-25.534,25.534-25.534
	c14.104,0,25.534,11.431,25.534,25.534S168.633,69.41,154.53,69.41z M43.881,180.059c-14.104,0-25.534-11.431-25.534-25.534
	s11.431-25.534,25.534-25.534s25.534,11.431,25.534,25.534S57.984,180.059,43.881,180.059z M43.881,350.289
	c-14.104,0-25.534-11.431-25.534-25.534s11.431-25.534,25.534-25.534s25.534,11.431,25.534,25.534S57.984,350.289,43.881,350.289z
	 M469.455,248.151c-14.104,0-25.534-11.431-25.534-25.534s11.431-25.534,25.534-25.534s25.534,11.431,25.534,25.534
	S483.559,248.151,469.455,248.151z"/>
<path d="M409.875,273.685c-9.78-0.009-19.083,4.205-25.534,11.55c-12.401-14.104-33.884-15.482-47.988-3.081
	c-1.089,0.962-2.119,1.992-3.081,3.081c-10.707-12.18-28.522-15.099-42.557-6.979V171.547c0-18.802-15.244-34.046-34.046-34.046
	c-18.802,0-34.046,15.244-34.046,34.046v137.035c-11.193-11.448-26.539-17.9-42.557-17.874c-4.698,0-8.511,3.813-8.511,8.511
	v153.207c0,2.256,0.894,4.426,2.494,6.018l53.563,53.563h24.07l-63.104-63.104v-140.32c19.806,4.068,34.02,21.492,34.046,41.706
	v59.58c0,4.698,3.813,8.512,8.511,8.512c4.698,0,8.511-3.813,8.511-8.512V171.547c0-9.405,7.618-17.023,17.023-17.023
	s17.023,7.618,17.023,17.023v153.207c0,4.698,3.813,8.512,8.512,8.512s8.511-3.813,8.511-8.512v-17.023
	c0-9.405,7.618-17.023,17.023-17.023s17.023,7.618,17.023,17.023v17.023c0,4.698,3.813,8.512,8.511,8.512
	c4.698,0,8.512-3.813,8.512-8.512v-17.023c0-9.405,7.618-17.023,17.023-17.023c9.405,0,17.023,7.618,17.023,17.023v17.023
	c0,4.698,3.813,8.512,8.512,8.512c4.698,0,8.511-3.813,8.511-8.512v-17.023c0-9.405,7.618-17.023,17.023-17.023
	s17.023,7.618,17.023,17.023v204.276h17.023V307.731C443.921,288.929,428.676,273.685,409.875,273.685z"/>
<g>
</g>
<g>
</g>
<g>
</g>
<g>
</g>
<g>
</g>
<g>
</g>
<g>
</g>
<g>
</g>
<g>
</g>
<g>
</g>
<g>
</g>
<g>
</g>
<g>
</g>
<g>
</g>
<g>
</g>
</svg>
