<svg id="Capa_1" enable-background="new 0 0 509.978 509.978" height="512" viewBox="0 0 509.978 509.978" width="512" xmlns="http://www.w3.org/2000/svg"><g><path d="m189.521 320.46-31.824-31.824-144.535 144.551c-17.549 17.549-17.549 46.084 0 63.633 17.532 17.531 46.084 17.549 63.633 0l144.551-144.536z" fill="#e6f7ff"/><path d="m76.794 496.82 144.551-144.536-31.824-31.824-176.359 176.36c17.532 17.53 46.084 17.549 63.632 0z" fill="#b3ccff"/><path d="m452.798 57.184c-35.31-35.31-84.06-57.18-137.82-57.18-107.52 0-195 87.48-195 195 0 53.76 21.87 102.51 57.18 137.82s84.06 57.18 137.82 57.18c107.52 0 195-87.48 195-195 0-53.76-21.87-102.51-57.18-137.82z" fill="#4d6699"/><path d="m509.978 195.003c0-53.76-21.87-102.51-57.18-137.82l-275.64 275.64c35.31 35.31 84.06 57.18 137.82 57.18 107.52 0 195-87.48 195-195z" fill="#404b80"/><path d="m410.394 99.587c-24.444-24.444-58.194-39.584-95.416-39.584-74.443 0-135 60.557-135 135 0 37.222 15.139 70.972 39.584 95.416s58.195 39.584 95.416 39.584c74.443 0 135-60.557 135-135 0-37.221-15.139-70.971-39.584-95.416z" fill="#ff6673"/><path d="m449.978 195.003c0-37.222-15.139-70.972-39.584-95.416l-190.832 190.833c24.445 24.445 58.195 39.584 95.416 39.584 74.443-.001 135-60.557 135-135.001z" fill="#e62e2e"/><path d="m336.189 195.003 19.395-19.395c5.859-5.859 5.859-15.352 0-21.211s-15.352-5.859-21.211 0l-19.395 19.395-19.395-19.395c-5.859-5.859-15.352-5.859-21.211 0s-5.859 15.352 0 21.211l19.395 19.395-19.395 19.395c-5.859 5.859-5.859 15.352 0 21.211s15.352 5.859 21.211 0l19.395-19.395 19.395 19.395c5.859 5.859 15.352 5.859 21.211 0s5.859-15.352 0-21.211z" fill="#f9f4f3"/><path d="m295.583 235.609 19.395-19.395 19.395 19.395c5.859 5.859 15.352 5.859 21.211 0s5.859-15.352 0-21.211l-19.395-19.395 19.395-19.395c5.859-5.859 5.859-15.352 0-21.211l-81.211 81.211c5.859 5.86 15.351 5.86 21.21.001z" fill="#f0e6e1"/></g></svg>